<svg height="512pt" viewBox="0 0 512 511" width="512pt" xmlns="http://www.w3.org/2000/svg"><path d="m272.539062 324.46875-70.703124 11.074219-70.703126-11.074219 21.667969-41.125 52.632813-23.824219 45.4375 23.824219zm0 0" fill="#353a59"/><path d="m364.882812 283.34375h-326.097656c-17.222656 0-31.183594-13.964844-31.183594-31.1875v-212.863281c0-17.222657 13.960938-31.1875 31.183594-31.1875h326.097656c17.222657 0 31.1875 13.964843 31.1875 31.1875v212.863281c-.003906 17.222656-13.964843 31.1875-31.1875 31.1875zm0 0" fill="#4c5072"/><path d="m53.242188 283.34375h-14.460938c-17.21875 0-31.183594-13.960938-31.183594-31.179688v-212.875c0-17.222656 13.960938-31.183593 31.183594-31.183593h14.085938c-17.042969.199219-30.808594 14.089843-30.808594 31.183593v212.875c0 17.21875 13.960937 31.179688 31.183594 31.179688zm0 0" fill="#353a59"/><path d="m284.042969 346.613281h-164.414063c-6.117187 0-11.074218-4.957031-11.074218-11.070312 0-6.117188 4.960937-11.074219 11.074218-11.074219h164.414063c6.113281 0 11.070312 4.957031 11.070312 11.074219 0 6.113281-4.957031 11.070312-11.070312 11.070312zm0 0" fill="#4c5072"/><path d="m350.800781 234.039062h-297.929687c-14.035156 0-25.414063-11.378906-25.414063-25.414062v-152.777344c0-14.035156 11.378907-25.410156 25.414063-25.410156h297.929687c14.035157 0 25.410157 11.375 25.410157 25.410156v152.777344c.003906 14.035156-11.375 25.414062-25.410157 25.414062zm0 0" fill="#b4e7fd"/><path d="m479.652344 222.5v222.007812h-319.675782v-222.007812c0-18.292969 14.828126-33.125 33.117188-33.125h253.433594c18.300781 0 33.125 14.832031 33.125 33.125zm0 0" fill="#e1ebf0"/><path d="m456.464844 232.804688v156.839843c0 8.484375-6.878906 15.355469-15.359375 15.355469h-242.585938c-8.480469 0-15.363281-6.871094-15.363281-15.355469v-156.839843c0-8.480469 6.878906-15.359376 15.363281-15.359376h242.585938c8.480469 0 15.359375 6.878907 15.359375 15.359376zm0 0" fill="#b4e7fd"/><path d="m204.875 189.378906c-18.292969 0-33.117188 14.832032-33.117188 33.125v222.007813h-11.785156v-222.007813c0-18.292968 14.828125-33.125 33.121094-33.125zm0 0" fill="#b4d2d7"/><path d="m159.976562 413.859375h319.675782v30.648437h-319.675782zm0 0" fill="#b4d2d7"/><path d="m496.046875 427.671875h-352.46875c-4.609375 0-8.34375 3.738281-8.34375 8.347656 0 13.980469 11.332031 25.3125 25.3125 25.3125h318.53125c13.980469 0 25.3125-11.332031 25.3125-25.3125.003906-4.609375-3.734375-8.347656-8.34375-8.347656zm0 0" fill="#e1ebf0"/><path d="m202.628906 461.335938h-42.085937c-6.992188 0-13.320313-2.832032-17.902344-7.414063-4.578125-4.578125-7.410156-10.90625-7.410156-17.898437 0-4.613282 3.734375-8.347657 8.34375-8.347657h42.085937c-4.609375 0-8.347656 3.738281-8.347656 8.347657 0 6.992187 2.832031 13.320312 7.414062 17.898437 4.582032 4.582031 10.910157 7.414063 17.902344 7.414063zm0 0" fill="#b4d2d7"/><path d="m405.691406 367.5625h-65.257812c-8.269532 0-14.976563 6.703125-14.976563 14.976562v105.84375c0 8.269532 6.707031 14.976563 14.976563 14.976563h65.257812c8.269532 0 14.976563-6.707031 14.976563-14.976563v-105.84375c0-8.273437-6.707031-14.976562-14.976563-14.976562zm0 0" fill="#4c5072"/><path d="m409.171875 395.46875h-72.222656c-6.347657 0-11.492188 5.148438-11.492188 11.492188v56.996093c0 6.347657 5.148438 11.492188 11.492188 11.492188h72.222656c6.347656 0 11.496094-5.148438 11.496094-11.492188v-56.996093c0-6.34375-5.148438-11.492188-11.496094-11.492188zm0 0" fill="#d5f1fe"/><path d="m507.332031 424.738281c-3.015625-3.011719-7.023437-4.671875-11.289062-4.671875h-8.78125v-197.570312c0-22.453125-18.273438-40.71875-40.738281-40.71875h-42.855469v-142.488282c0-21.386718-17.394531-38.789062-38.777344-38.789062h-326.101563c-21.386718 0-38.789062 17.402344-38.789062 38.789062v212.871094c0 21.382813 17.402344 38.78125 38.789062 38.78125h21.402344c4.199219 0 7.605469-3.40625 7.605469-7.605468 0-4.199219-3.40625-7.601563-7.605469-7.601563h-21.402344c-13.003906 0-23.582031-10.574219-23.582031-23.574219v-212.871094c0-13.003906 10.582031-23.582031 23.582031-23.582031h326.101563c12.996094 0 23.570313 10.582031 23.570313 23.582031v142.488282h-4.644532v-125.929688c0-18.203125-14.8125-33.011718-33.019531-33.011718h-297.925781c-18.207032 0-33.019532 14.808593-33.019532 33.011718v152.777344c0 18.203125 14.8125 33.011719 33.019532 33.011719h99.503906v34.097656h-61.765625c-4.199219 0-7.605469 3.402344-7.605469 7.601563 0 4.199218 3.40625 7.605468 7.605469 7.605468h49.589844l-13.65625 25.925782h-6.917969c-5 0-9.695312 1.945312-13.1875 5.457031-3.539062 3.519531-5.488281 8.210937-5.488281 13.214843 0 10.300782 8.378906 18.675782 18.675781 18.675782h32.75v65.851562h-8.792969c-8.796875 0-15.957031 7.15625-15.957031 15.949219 0 8.78125 3.421875 17.046875 9.644531 23.285156 6.226563 6.210938 14.492188 9.632813 23.277344 9.632813h157.308594v19.449218c0 12.449219 10.128906 22.578126 22.578125 22.578126h65.257812c12.449219 0 22.578125-10.128907 22.578125-22.578126v-19.449218h50.808594c18.152344 0 32.921875-14.765625 32.921875-32.917969 0-4.261719-1.65625-8.265625-4.667969-11.277344zm-454.460937-198.308593c-9.820313 0-17.8125-7.988282-17.8125-17.804688v-152.777344c0-9.816406 7.992187-17.804687 17.8125-17.804687h297.925781c9.820313 0 17.8125 7.988281 17.8125 17.804687v125.929688h-175.507813c-22.457031 0-40.726562 18.265625-40.726562 40.71875v3.933594zm99.503906 74.03125v16.40625h-8.644531zm-32.75 38.546874c-1.910156 0-3.46875-1.554687-3.46875-3.46875 0-1.25.628906-2.0625 1.03125-2.460937.375-.375 1.1875-1.003906 2.4375-1.003906h32.75v6.933593zm47.957031-116.511718c0-14.066406 11.445313-25.507813 25.519531-25.507813h253.421876c14.078124 0 25.53125 11.441407 25.53125 25.507813v197.570312h-43.785157v-7.460937h12.832031c12.660157 0 22.960938-10.296875 22.960938-22.953125v-120.203125c0-4.199219-3.402344-7.601563-7.601562-7.601563-4.203126 0-7.605469 3.402344-7.605469 7.601563v120.203125c0 4.269531-3.480469 7.742187-7.753907 7.742187h-12.832031v-14.855469c0-12.453124-10.128906-22.582031-22.578125-22.582031h-65.257812c-12.449219 0-22.578125 10.132813-22.578125 22.582031v14.855469h-119.332031c-4.28125 0-7.765626-3.472656-7.765626-7.742187v-156.847656c0-4.273438 3.484376-7.753907 7.765626-7.753907h242.578124c4.277344 0 7.753907 3.480469 7.753907 7.753907v6.230468c0 4.199219 3.40625 7.605469 7.605469 7.605469 4.199218 0 7.605468-3.40625 7.605468-7.605469v-6.230468c0-12.660157-10.304687-22.960938-22.964844-22.960938h-242.578124c-12.667969 0-22.972657 10.300781-22.972657 22.960938v156.847656c0 12.65625 10.304688 22.953125 22.972657 22.953125h119.332031v7.460937h-150.273438zm245.480469 165.769531c-1.253906-.261719-2.554688-.402344-3.886719-.402344h-72.222656c-1.332031 0-2.632813.140625-3.890625.402344v-5.726563c0-4.066406 3.308594-7.371093 7.371094-7.371093h65.257812c4.066406 0 7.371094 3.304687 7.371094 7.371093zm-80 73.105469c0-.015625 0-.027344 0-.039063 0-.015625 0-.027343 0-.042969v-54.328124c0-2.144532 1.742188-3.886719 3.886719-3.886719h72.222656c2.144531 0 3.890625 1.742187 3.890625 3.886719v56.996093c0 2.144531-1.746094 3.886719-3.890625 3.886719h-72.222656c-2.144531 0-3.886719-1.742188-3.886719-3.886719zm-185.039062-12.824219c-3.347657-3.351563-5.191407-7.804687-5.191407-12.53125 0-.410156.335938-.742187.75-.742187h174.273438v18.453124h-157.308594c-4.730469 0-9.179687-1.84375-12.523437-5.179687zm257.667968 47.207031h-65.257812c-4.066406 0-7.371094-3.308594-7.371094-7.371094v-5.730468c1.257812.261718 2.558594.402344 3.890625.402344h72.222656c1.332031 0 2.632813-.140626 3.886719-.402344v5.730468c0 4.0625-3.304688 7.371094-7.371094 7.371094zm73.386719-42.027344h-50.808594v-18.453124h67.773438c.210937 0 .390625.074218.53125.214843.144531.144531.21875.320313.21875.527344 0 9.765625-7.945313 17.710937-17.714844 17.710937zm0 0"/></svg>